Coordinates
version=1
nRows=17
nColumns=38
inDegrees=no

Units are S.I. units (second, meters, Newtons, ...)
If the header above contains a line with 'inDegrees', this indicates whether rotational values are in degrees (yes) or radians (no).

endheader
time	pelvis_tilt	pelvis_list	pelvis_rotation	pelvis_tx	pelvis_ty	pelvis_tz	hip_flexion_r	hip_adduction_r	hip_rotation_r	knee_angle_r	ankle_angle_r	subtalar_angle_r	mtp_angle_r	hip_flexion_l	hip_adduction_l	hip_rotation_l	knee_angle_l	ankle_angle_l	subtalar_angle_l	mtp_angle_l	lumbar_extension	lumbar_bending	lumbar_rotation	arm_flex_r	arm_add_r	arm_rot_r	elbow_flex_r	pro_sup_r	wrist_flex_r	wrist_dev_r	arm_flex_l	arm_add_l	arm_rot_l	elbow_flex_l	pro_sup_l	wrist_flex_l	wrist_dev_l
0.56	-0.347051	1.53609	-1.12616	0.776415	0.700981	0.949639	0.509519	-0.0863434	-0.142	0.23428	0.0692688	0	0	-0.233352	0.0985184	-0.0651003	0.0693542	0.251197	0	0	-0.0972432	0.0163675	-0.204003	-0.0112713	-0.113542	-0.179525	0.233346	1.37379	0	0	0.0252073	-0.356818	-0.369082	0	1.5708	0	0
0.57	-0.481206	1.53364	-0.990722	0.775535	0.689053	0.947704	0.498668	-0.0759188	-0.144655	0.184136	0.0714032	0	0	-0.24606	0.0900858	-0.0665238	0.0721226	0.263592	0	0	-0.096168	0.0213471	-0.204281	-0.0104787	-0.112132	-0.174443	0.230082	1.3753	0	0	0.0243683	-0.357041	-0.36929	0	1.5708	0	0
0.58	-0.603443	1.53164	-0.866532	0.774616	0.676981	0.945602	0.489501	-0.0662083	-0.144538	0.139182	0.0722361	0	0	-0.256059	0.081812	-0.0685841	0.0783777	0.277093	0	0	-0.0937569	0.0256984	-0.20564	-0.0101099	-0.110991	-0.165412	0.226439	1.38049	0	0	0.0228052	-0.357229	-0.366609	0	1.5708	0	0
0.59	-0.712403	1.52994	-0.755149	0.773711	0.664791	0.94341	0.481646	-0.0575966	-0.142425	0.0997499	0.0714462	0	0	-0.263923	0.0739658	-0.0717551	0.0877048	0.290966	0	0	-0.0906041	0.0293891	-0.207835	-0.00998317	-0.110085	-0.157311	0.223888	1.38477	0	0	0.0210789	-0.35763	-0.364349	0	1.5708	0	0
0.6	-0.812947	1.52883	-0.65188	0.772842	0.652524	0.941137	0.477211	-0.050811	-0.142704	0.0707778	0.0719492	0	0	-0.269725	0.0667045	-0.0759155	0.0998663	0.305114	0	0	-0.0867323	0.032304	-0.210641	-0.0102035	-0.109369	-0.154441	0.223695	1.38576	0	0	0.0187623	-0.358031	-0.362796	0	1.5708	0	0
0.61	-0.89485	1.5286	-0.567119	0.772033	0.640227	0.938827	0.478779	-0.0469511	-0.149478	0.0594333	0.0776634	0	0	-0.275197	0.0610055	-0.0781592	0.111923	0.316777	0	0	-0.0828807	0.0339414	-0.213904	-0.0104683	-0.108795	-0.154181	0.224288	1.38601	0	0	0.016591	-0.35859	-0.36268	0	1.5708	0	0
0.62	-0.956114	1.5276	-0.502829	0.771247	0.627831	0.936629	0.483448	-0.0440898	-0.159578	0.0623979	0.0842282	0	0	-0.280675	0.0548029	-0.08255	0.126591	0.329288	0	0	-0.0803083	0.0358642	-0.217968	-0.0103204	-0.10843	-0.151766	0.223565	1.38831	0	0	0.0137566	-0.359066	-0.362392	0	1.5708	0	0
0.63	-0.991663	1.52653	-0.46394	0.77054	0.615316	0.934587	0.491086	-0.0429542	-0.17363	0.0790116	0.0897481	0	0	-0.28675	0.0486946	-0.0869997	0.142186	0.340477	0	0	-0.0786842	0.0374495	-0.223042	-0.00994545	-0.108411	-0.14572	0.221653	1.39404	0	0	0.0103457	-0.359495	-0.36262	0	1.5708	0	0
0.64	-1.01191	1.52552	-0.439413	0.769963	0.60262	0.932711	0.499024	-0.0431846	-0.188894	0.102549	0.0905975	0	0	-0.293051	0.0423449	-0.0904729	0.158512	0.349661	0	0	-0.0773909	0.0389171	-0.229556	-0.00996095	-0.109059	-0.13692	0.220155	1.40273	0	0	0.0064891	-0.359598	-0.362432	0	1.5708	0	0
0.65	-1.02932	1.52483	-0.416433	0.769528	0.589651	0.930998	0.506106	-0.0445777	-0.203696	0.129342	0.088095	0	0	-0.298635	0.0355642	-0.0924134	0.176295	0.35691	0	0	-0.0755742	0.0401669	-0.237716	-0.0102337	-0.110264	-0.128512	0.219568	1.41141	0	0	0.00187764	-0.35955	-0.362785	0	1.5708	0	0
0.66	-1.05286	1.52463	-0.385577	0.769248	0.576332	0.929434	0.511601	-0.0469234	-0.217119	0.157014	0.0854314	0	0	-0.302787	0.0282889	-0.0924817	0.195881	0.362456	0	0	-0.0726904	0.041137	-0.2478	-0.0116482	-0.111772	-0.1211	0.219579	1.41944	0	0	-0.00343691	-0.359489	-0.365155	0	1.5708	0	0
0.67	-1.08359	1.52499	-0.345919	0.769096	0.562614	0.928006	0.514882	-0.049898	-0.229026	0.184436	0.0860512	0	0	-0.305603	0.0205535	-0.0913834	0.217149	0.366206	0	0	-0.0683501	0.0416808	-0.259744	-0.0149159	-0.113529	-0.115348	0.220469	1.42637	0	0	-0.00962829	-0.359296	-0.370254	0	1.5708	0	0
0.68	-1.12398	1.5261	-0.295372	0.76903	0.548501	0.92666	0.516068	-0.0532523	-0.239029	0.211495	0.0914888	0	0	-0.306998	0.0127727	-0.0892209	0.239933	0.367723	0	0	-0.0624533	0.0415644	-0.272886	-0.0200861	-0.115456	-0.111572	0.22209	1.43207	0	0	-0.0165547	-0.35911	-0.376288	0	1.5708	0	0
0.69	-1.18939	1.52798	-0.218774	0.769008	0.53396	0.925326	0.515493	-0.0565248	-0.24699	0.237309	0.100664	0	0	-0.306423	0.00488648	-0.0862335	0.264245	0.367303	0	0	-0.0541666	0.0406371	-0.287282	-0.0267233	-0.11739	-0.108899	0.223477	1.43717	0	0	-0.0245677	-0.358821	-0.382892	0	1.5708	0	0
0.7	-1.29806	1.53015	-0.0981053	0.769009	0.518999	0.923968	0.513442	-0.0591474	-0.253144	0.260376	0.112212	0	0	-0.302919	-0.00350356	-0.0832088	0.290885	0.364631	0	0	-0.0430907	0.0391344	-0.30254	-0.034348	-0.119414	-0.106562	0.223745	1.44214	0	0	-0.0340055	-0.35814	-0.38898	0	1.5708	0	0
0.71	-1.45461	1.53138	0.07073	0.768994	0.503692	0.922609	0.509495	-0.0601852	-0.25799	0.276299	0.121884	0	0	-0.295944	-0.0129547	-0.0807308	0.320991	0.359853	0	0	-0.0296328	0.0377685	-0.317801	-0.0431424	-0.121995	-0.105693	0.22448	1.44599	0	0	-0.0448298	-0.35719	-0.395528	0	1.5708	0	0
0.72	-1.63526	1.53012	0.262384	0.7688	0.488224	0.921358	0.503944	-0.0581288	-0.261674	0.280925	0.11605	0	0	-0.285445	-0.0240088	-0.0794254	0.355421	0.352827	0	0	-0.0149048	0.0377379	-0.331035	-0.052671	-0.125373	-0.105601	0.225338	1.44922	0	0	-0.0557991	-0.355695	-0.402429	0	1.5708	0	0
